<mxfile host="app.diagrams.net" modified="2024-02-03T07:31:11.222Z" agent="Mozilla/5.0 (Windows NT 10.0; Win64; x64) AppleWebKit/537.36 (KHTML, like Gecko) Chrome/120.0.0.0 YaBrowser/24.1.0.0 Safari/537.36" version="23.1.1" etag="kr2BL1USm_QcHKIP4bbN" type="github">
  <diagram name="Страница — 1" id="KUJvm4YgO747NePnPgBc">
    <mxGraphModel>
      <root>
        <mxCell id="0" />
        <mxCell id="1" parent="0" />
      </root>
    </mxGraphModel>
  </diagram>
</mxfile>
